<svg id="visual" viewBox="0 0 960 300" width="960" height="300" xmlns="http://www.w3.org/2000/svg" xmlns:xlink="http://www.w3.org/1999/xlink" version="1.1"><rect x="0" y="0" width="960" height="300" fill="#005B91"></rect><path d="M0 198L22.8 194.5C45.7 191 91.3 184 137 185.2C182.7 186.3 228.3 195.7 274 202.7C319.7 209.7 365.3 214.3 411.2 214.3C457 214.3 503 209.7 548.8 207.3C594.7 205 640.3 205 686 203.2C731.7 201.3 777.3 197.7 823 197.7C868.7 197.7 914.3 201.3 937.2 203.2L960 205L960 301L937.2 301C914.3 301 868.7 301 823 301C777.3 301 731.7 301 686 301C640.3 301 594.7 301 548.8 301C503 301 457 301 411.2 301C365.3 301 319.7 301 274 301C228.3 301 182.7 301 137 301C91.3 301 45.7 301 22.8 301L0 301Z" fill="#005b91"></path><path d="M0 199L22.8 202.5C45.7 206 91.3 213 137 212.8C182.7 212.7 228.3 205.3 274 208.5C319.7 211.7 365.3 225.3 411.2 232C457 238.7 503 238.3 548.8 238.2C594.7 238 640.3 238 686 236.8C731.7 235.7 777.3 233.3 823 231.7C868.7 230 914.3 229 937.2 228.5L960 228L960 301L937.2 301C914.3 301 868.7 301 823 301C777.3 301 731.7 301 686 301C640.3 301 594.7 301 548.8 301C503 301 457 301 411.2 301C365.3 301 319.7 301 274 301C228.3 301 182.7 301 137 301C91.3 301 45.7 301 22.8 301L0 301Z" fill="#00507f"></path><path d="M0 243L22.8 242.2C45.7 241.3 91.3 239.7 137 239C182.7 238.3 228.3 238.7 274 239.7C319.7 240.7 365.3 242.3 411.2 241.2C457 240 503 236 548.8 234.7C594.7 233.3 640.3 234.7 686 233.3C731.7 232 777.3 228 823 230.8C868.7 233.7 914.3 243.3 937.2 248.2L960 253L960 301L937.2 301C914.3 301 868.7 301 823 301C777.3 301 731.7 301 686 301C640.3 301 594.7 301 548.8 301C503 301 457 301 411.2 301C365.3 301 319.7 301 274 301C228.3 301 182.7 301 137 301C91.3 301 45.7 301 22.8 301L0 301Z" fill="#00456d"></path><path d="M0 255L22.8 252.7C45.7 250.3 91.3 245.7 137 244.2C182.7 242.7 228.3 244.3 274 244.3C319.7 244.3 365.3 242.7 411.2 244.7C457 246.7 503 252.3 548.8 252.3C594.7 252.3 640.3 246.7 686 248.5C731.7 250.3 777.3 259.7 823 264.2C868.7 268.7 914.3 268.3 937.2 268.2L960 268L960 301L937.2 301C914.3 301 868.7 301 823 301C777.3 301 731.7 301 686 301C640.3 301 594.7 301 548.8 301C503 301 457 301 411.2 301C365.3 301 319.7 301 274 301C228.3 301 182.7 301 137 301C91.3 301 45.7 301 22.8 301L0 301Z" fill="#003a5c"></path><path d="M0 268L22.8 271C45.7 274 91.3 280 137 279.8C182.7 279.7 228.3 273.3 274 270.5C319.7 267.7 365.3 268.3 411.2 270.7C457 273 503 277 548.8 279.7C594.7 282.3 640.3 283.7 686 283C731.7 282.3 777.3 279.7 823 277.8C868.7 276 914.3 275 937.2 274.5L960 274L960 301L937.2 301C914.3 301 868.7 301 823 301C777.3 301 731.7 301 686 301C640.3 301 594.7 301 548.8 301C503 301 457 301 411.2 301C365.3 301 319.7 301 274 301C228.3 301 182.7 301 137 301C91.3 301 45.7 301 22.8 301L0 301Z" fill="#002f4b"></path></svg>